<svg id="Layer_1" data-name="Layer 1" xmlns="http://www.w3.org/2000/svg" viewBox="0 0 128.84 126.46"><defs><style>.cls-1{fill:#919191;}.cls-2{fill:#fff;}</style></defs><title>female-off</title><circle class="cls-1" cx="64.42" cy="63.23" r="50"/><circle class="cls-2" cx="64.32" cy="36.45" r="8.94"/><path class="cls-2" d="M81.9,68.4L74.27,49.82c-0.44-.94-0.82-2.19-2.61-2.19H58.12a3.5,3.5,0,0,0-3.23,2.21L47,68.28a3.13,3.13,0,0,0,1.41,4.18A3.08,3.08,0,0,0,52.51,71l0.6-1.22s0.19-.33.12,0c-0.43,2.27-1.62,9.1-1.62,9.1a2.07,2.07,0,0,0,2.11,2.58h3.45c0.25,0,.2.19,0.2,0.19V95.44c0,2.3,1.43,3.5,3.2,3.5s3.2-1.21,3.2-3.5V81.66a0.12,0.12,0,0,1,.14-0.13h0.87a0.12,0.12,0,0,1,.11.14V95.44c0,2.3,1.43,3.5,3.2,3.5s3.2-1.21,3.2-3.5V81.75a0.21,0.21,0,0,1,.24-0.22h3.71a2.12,2.12,0,0,0,2.16-2.59s-1.19-7.33-1.51-9.32c-0.09-.57.86,1.46,0.86,1.46a2.61,2.61,0,0,0,3.68,1.48A3.13,3.13,0,0,0,81.9,68.4Z"/></svg>