<svg id="Layer_1" data-name="Layer 1" xmlns="http://www.w3.org/2000/svg" viewBox="0 0 128.84 126.46"><defs><style>.cls-1{fill:#326a9f;}.cls-2{fill:#fafbfc;}</style></defs><title>male</title><circle class="cls-1" cx="64.42" cy="63.23" r="50"/><path class="cls-2" d="M75,49.63a3.6,3.6,0,0,0-3.43-2.24c-0.73,0-.8,0-1.23,0H57.27a3.4,3.4,0,0,0-3.43,2.23L47.52,68.84a3.14,3.14,0,0,0,1.82,4,3.1,3.1,0,0,0,4-1.83L55,66.52s0.12-.46.12,1.53V94.72a4.18,4.18,0,1,0,8.36,0V77.3a0.13,0.13,0,0,1,.14-0.15H65.2a0.14,0.14,0,0,1,.15.15V94.72a4.18,4.18,0,1,0,8.36,0V68.06c0-2,.18-1.39.18-1.39L75.51,71a3.09,3.09,0,0,0,4,1.83,3.14,3.14,0,0,0,1.82-4Z"/><ellipse class="cls-2" cx="64.5" cy="36.39" rx="8.97" ry="8.88"/></svg>