<?xml version="1.0" encoding="utf-8"?>
<!-- Generator: Adobe Illustrator 19.2.1, SVG Export Plug-In . SVG Version: 6.00 Build 0)  -->
<svg version="1.1" id="Layer_1" xmlns="http://www.w3.org/2000/svg" xmlns:xlink="http://www.w3.org/1999/xlink" x="0px" y="0px"
	 viewBox="0 0 128.8 126.5" style="enable-background:new 0 0 128.8 126.5;" xml:space="preserve">
<style type="text/css">
	.st0{fill:#326A9F;}
	.st1{fill:#FAFBFC;}
</style>
<title>male</title>
<circle class="st0" cx="64.4" cy="63.2" r="50"/>
<path class="st1" d="M75,49.6c-0.6-1.4-1.9-2.3-3.4-2.2c-0.7,0-0.8,0-1.2,0H57.3c-1.5-0.1-2.9,0.8-3.4,2.2l-6.3,19.2
	c-0.6,1.6,0.2,3.4,1.8,4c1.6,0.6,3.4-0.2,4-1.8c0,0,0,0,0,0l1.7-4.5c0,0,0.1-0.5,0.1,1.5v26.7c0,2.3,1.9,4.2,4.2,4.2
	s4.2-1.9,4.2-4.2V77.3c0-0.1,0-0.1,0.1-0.1c0,0,0,0,0,0h1.6c0.1,0,0.1,0.1,0.2,0.1c0,0,0,0,0,0v17.4c0,2.3,1.9,4.2,4.2,4.2
	s4.2-1.9,4.2-4.2V68.1c0-2,0.2-1.4,0.2-1.4l1.6,4.3c0.6,1.6,2.4,2.4,4,1.8c0,0,0,0,0,0c1.6-0.6,2.4-2.4,1.8-4L75,49.6z"/>
<ellipse class="st1" cx="64.5" cy="36.4" rx="9" ry="8.9"/>
</svg>
